# xmcd
#
# Track frame offsets:
#	150
#	34729
#	61325
#	89631
#	138052
#	139802
#	178216
#	240718
#	281147
#	317644
#
# Disc length: 4643 seconds
#
# Revision: 0
# Processed by: cddbd v1.4PL0 Copyright (c) Steve Scherf et al.
# Submitted via: audiograbber 1.80.04
#
DISCID=9312210a
DTITLE=The Kan-Tu Blues Band - Kan-Tuesdays - Live at KC's Rib Shack
DYEAR=2002
DGENRE=Blues
TTITLE0=Rock This House
TTITLE1=There's The Door (Vocals by Lonely Gus)
TTITLE2=There's Something Wrong (Vocals by Earl)
TTITLE3=Jerry's Piano Jam
TTITLE4=Tunin' Up
TTITLE5=Anything it Takes
TTITLE6=Mr. Clean Head (Vocals by Jay Doucette)
TTITLE7=Loan Me a Dime
TTITLE8=The Chuck Bryden Jam (Vocals by Chuck Bryden)
TTITLE9=Walkin' To My Baby
EXTD=
EXTT0=
EXTT1=
EXTT2=
EXTT3=
EXTT4=
EXTT5=
EXTT6=
EXTT7=
EXTT8=
EXTT9=
PLAYORDER=
